PathFileType	4	(X/Y/Z)	14_coords_data.trc
DataRate	CameraRate	NumFrames	NumMarkers	Units	OrigDataRate	OrigDataStartFrame	OrigNumFrames
30.0	30.0	7	21	m	30.0	43	53
Frame#	Time	THUMB_TIP	THUMB_IP	THUMB_MCP	THUMB_CMC	INDEX_TIP	INDEX_DIP	INDEX_PIP	INDEX_MCP	MIDDLE_TIP	MIDDLE_DIP	MIDDLE_PIP	MIDDLE_MCP	RING_TIP	RING_DIP	RING_PIP	RING_MCP	PINKY_TIP	PINKY_DIP	PINKY_PIP	PINKY_MCP	WRIST
X1	Y1	Z1	X2	Y2	Z2	X3	Y3	Z3	X4	Y4	Z4	X5	Y5	Z5	X6	Y6	Z6	X7	Y7	Z7	X8	Y8	Z8	X9	Y9	Z9	X10	Y10	Z10	X11	Y11	Z11	X12	Y12	Z12	X13	Y13	Z13	X14	Y14	Z14	X15	Y15	Z15	X16	Y16	Z16	X17	Y17	Z17	X18	Y18	Z18	X19	Y19	Z19	X20	Y20	Z20	X21	Y21	Z21
42	1.4	0.034206401824951174	-0.03943960189819336	0.9559190063476563	0.01721929931640625	-0.029693700790405272	0.9739349975585937	-0.001735489964485168	-0.022979799270629882	0.9956099853515625	-0.012269000053405761	0.003431710004806518	1.0110900268554688	0.02307159996032715	-0.017269399642944334	0.8916329956054687	0.005014279842376709	-0.015365500450134278	0.90214697265625	-0.010769200325012208	-0.013235400199890137	0.9177639770507813	-0.01783650016784668	-0.008414739608764649	0.9526519775390625	0.03280739974975586	0.020307699203491212	0.877031982421875	0.015300999641418457	0.01982360076904297	0.89297900390625	-0.003698689937591552	0.017955999374389648	0.9134630126953125	-0.019117799758911133	0.014681099891662597	0.9494639892578125	0.03462279891967773	0.043580101013183596	0.8887319946289063	0.01941889953613281	0.042626499176025394	0.90552001953125	0.0030014801025390623	0.040511199951171875	0.924676025390625	-0.01272130012512207	0.03419900131225586	0.9545809936523437	0.030699100494384766	0.07492489624023438	0.9216909790039063	0.019141799926757814	0.06829489898681641	0.93497900390625	0.009050169944763183	0.06152360153198242	0.9468079833984375	-0.004054810047149658	0.04970500183105469	0.9654500122070313	-0.03605920028686523	0.027702499389648437	1.0239000244140626
43	1.4333333333333333	0.032991100311279296	-0.03484360122680664	0.9537239990234375	0.01640169906616211	-0.026206499099731446	0.9720819702148438	-0.002095419883728027	-0.020506900787353517	0.99485400390625	-0.012990300178527831	0.005319650173187256	1.0105499877929687	0.018705799102783204	-0.013692700386047363	0.8904229736328125	0.000909413993358612	-0.012502900123596191	0.901530029296875	-0.014458999633789063	-0.01111240005493164	0.9175880126953125	-0.02089940071105957	-0.006879250049591065	0.9529119873046875	0.027229799270629882	0.02380660057067871	0.8761409912109375	0.01001669979095459	0.022737199783325196	0.8924509887695312	-0.008576970100402832	0.02025670051574707	0.9132869873046875	-0.02285140037536621	0.016308300018310545	0.9492890014648437	0.027632200241088867	0.0483588981628418	0.8868400268554687	0.013695799827575683	0.04629460144042969	0.9046099853515625	-0.001516000032424926	0.04304380035400391	0.9243670043945312	-0.016750699996948244	0.035966201782226564	0.9547130126953125	0.024100099563598633	0.07812670135498047	0.9202670288085938	0.01325220012664795	0.07095760345458985	0.934010009765625	0.004025010108947754	0.06383499908447265	0.9459459838867188	-0.008121350288391112	0.05170989990234375	0.965197021484375	-0.03726860046386719	0.02879680061340332	1.0246400146484376
44	1.4666666666666666	0.03036319923400879	-0.030940900802612303	0.9510499877929688	0.014252200126647949	-0.02336129951477051	0.9706119995117187	-0.003379199981689453	-0.0183656005859375	0.9942000122070312	-0.013842700004577636	0.006951310157775879	1.0103900146484375	0.014781499862670898	-0.010462900161743165	0.8900640258789062	-0.003076289892196655	-0.009746930122375489	0.9011890258789063	-0.018179100036621095	-0.008819430351257325	0.917594970703125	-0.024139400482177734	-0.0053069300651550294	0.952844970703125	0.022237499237060546	0.026321800231933593	0.87581298828125	0.005191659927368164	0.025086700439453127	0.8922830200195313	-0.013127599716186523	0.022372200012207032	0.9132940063476562	-0.02659410095214844	0.018076200485229493	0.9499459838867188	0.022558000564575194	0.051154499053955076	0.886155029296875	0.00904916000366211	0.04879579925537109	0.9045029907226563	-0.005711359977722168	0.045238201141357424	0.9245709838867188	-0.020380800247192382	0.03776449966430664	0.9549569702148437	0.020018699645996094	0.08014189910888672	0.9201519775390625	0.009397540092468262	0.07293599700927735	0.9338049926757812	0.000254429996013641	0.06576319885253906	0.946010009765625	-0.011440600395202637	0.05353839874267578	0.9654210205078125	-0.03806470108032227	0.029990400314331055	1.0253900146484376
45	1.5	0.0280585994720459	-0.02771859931945801	0.9485889892578125	0.012376500129699706	-0.020960500717163086	0.9691389770507812	-0.004485829830169678	-0.01666029930114746	0.9933060302734374	-0.014743499755859375	0.008384249687194823	1.00997998046875	0.0124306001663208	-0.007602920055389404	0.8900889892578125	-0.0054867701530456545	-0.0072125401496887205	0.9010230102539063	-0.020716299057006837	-0.006590479850769043	0.9173209838867188	-0.026510400772094725	-0.003627650022506714	0.9527009887695312	0.020024999618530274	0.02849329948425293	0.87639697265625	0.002860219955444336	0.027229799270629882	0.8926090087890625	-0.015541399955749512	0.02433709907531738	0.9134929809570312	-0.0289867000579834	0.019827199935913087	0.949989013671875	0.020081899642944337	0.052964599609375	0.8864400024414063	0.0066662697792053225	0.05052489852905274	0.9046959838867188	-0.008185359954833984	0.04700659942626953	0.9247570190429687	-0.022826099395751955	0.03948379898071289	0.9551339721679688	0.019351100921630858	0.0809530029296875	0.9210479736328125	0.00822616958618164	0.07410179901123047	0.9344920043945313	-0.00137457001209259	0.06709709930419921	0.9465180053710938	-0.013610400199890137	0.055137100219726565	0.96547998046875	-0.0386078987121582	0.03096660041809082	1.025530029296875
46	1.5333333333333334	0.027144699096679686	-0.026590599060058593	0.948468994140625	0.011475000381469726	-0.019849899291992188	0.9689340209960937	-0.005339799880981445	-0.01566790008544922	0.9933790283203126	-0.015571599960327148	0.009379839897155762	1.01025	0.011701000213623048	-0.006179930210113526	0.8902839965820313	-0.006270579814910889	-0.005849810123443604	0.9011309814453125	-0.021542699813842773	-0.005315239906311035	0.9173590087890625	-0.027553499221801756	-0.002558370113372802	0.95272998046875	0.018994300842285157	0.029588499069213868	0.8764210205078125	0.001904590010643005	0.02836280059814453	0.8926599731445313	-0.016527399063110352	0.025505699157714844	0.913593994140625	-0.029865400314331055	0.020806499481201172	0.9500960083007812	0.01965519905090332	0.05350149917602539	0.8867969970703125	0.006041250228881836	0.05126309967041016	0.9049420166015625	-0.00896245002746582	0.04787260055541992	0.9249819946289063	-0.02363319969177246	0.040482101440429685	0.9554199829101563	0.020391199111938478	0.08097720336914062	0.92222998046875	0.008708109855651855	0.07441519927978515	0.9352269897460938	-0.0013677500486373902	0.06768939971923828	0.9470349731445312	-0.014227299690246583	0.056010799407958986	0.9657940063476562	-0.039200199127197265	0.03199799919128418	1.02577001953125
47	1.5666666666666667	0.02692180061340332	-0.026340599060058593	0.948655029296875	0.011281399726867676	-0.01959469985961914	0.9690659790039062	-0.005631599903106689	-0.015431099891662598	0.9936290283203125	-0.015888999938964844	0.009479240417480468	1.0104099731445313	0.011577400207519531	-0.006201210021972656	0.89047998046875	-0.006403989791870117	-0.005788030147552491	0.90125	-0.021813499450683595	-0.005270709991455078	0.9174180297851563	-0.027802000045776366	-0.0024817900657653808	0.9528870239257813	0.01897949981689453	0.0295265998840332	0.8766589965820313	0.001853729963302612	0.028403900146484376	0.8927949829101562	-0.016626800537109375	0.025666200637817382	0.9137490234375	-0.03012100028991699	0.020958400726318358	0.9501220092773438	0.019947799682617187	0.052641101837158207	0.8873070068359376	0.0059161300659179685	0.050836898803710937	0.9050819702148437	-0.009411499977111817	0.04779100036621094	0.9250180053710938	-0.023938400268554687	0.040619300842285155	0.9555289916992188	0.021049299240112306	0.08067430114746094	0.9228489990234375	0.009103170394897461	0.07422830200195313	0.9358250122070313	-0.00130672001838684	0.06768260192871094	0.9473709716796875	-0.014517800331115722	0.05607759857177735	0.9660549926757812	-0.03959989929199219	0.032157798767089844	1.025969970703125
48	1.6	0.026927400588989257	-0.026687299728393555	0.9489829711914063	0.011219599723815917	-0.02001129913330078	0.9692570190429688	-0.0057363600730896	-0.015965999603271483	0.9936799926757812	-0.016145799636840822	0.00895598030090332	1.0103900146484375	0.012185999870300293	-0.0069718599319458004	0.8910590209960938	-0.0058905501365661625	-0.00652584981918335	0.9016510009765625	-0.021423700332641602	-0.005992740154266357	0.9176649780273437	-0.02781290054321289	-0.0032643098831176757	0.9528759765625	0.019843999862670898	0.028484699249267578	0.8773389892578125	0.0024269399642944333	0.027414400100708006	0.8932169799804688	-0.01632780075073242	0.02470319938659668	0.9138309936523438	-0.030182100296020507	0.020219499588012696	0.9501690063476562	0.02068989944458008	0.05057429885864258	0.8880780029296875	0.006128250122070311	0.04926269912719727	0.9052020263671875	-0.009771599769592285	0.046728500366210936	0.9248109741210937	-0.024236000061035157	0.03995989990234375	0.9556530151367187	0.021635000228881835	0.07949109649658204	0.9230540161132812	0.009274649620056152	0.07327230072021484	0.9358619995117188	-0.001388479948043823	0.0668979034423828	0.9473809814453125	-0.014799300193786622	0.05551729965209961	0.9659439697265625	-0.039854698181152344	0.031562299728393556	1.0260799560546876
